<svg width="38" height="23" viewBox="0 0 38 23" fill="none" xmlns="http://www.w3.org/2000/svg">
    <path fill-rule="evenodd" clip-rule="evenodd" d="M19.0013 4.875C15.4319 4.875 12.0087 6.29293 9.48482 8.81686C6.9609 11.3408 5.54297 14.764 5.54297 18.3333V19.9167C5.54297 20.5466 5.29275 21.1506 4.84735 21.596C4.40195 22.0414 3.79786 22.2917 3.16797 22.2917C2.53808 22.2917 1.93399 22.0414 1.48859 21.596C1.04319 21.1506 0.792969 20.5466 0.792969 19.9167V18.3333C0.792969 8.27758 8.94555 0.125 19.0013 0.125C29.0571 0.125 37.2096 8.27758 37.2096 18.3333V19.9167C37.2096 20.5466 36.9594 21.1506 36.514 21.596C36.0686 22.0414 35.4645 22.2917 34.8346 22.2917C34.2047 22.2917 33.6007 22.0414 33.1553 21.596C32.7099 21.1506 32.4596 20.5466 32.4596 19.9167V18.3333C32.4596 14.764 31.0417 11.3408 28.5178 8.81686C25.9939 6.29293 22.5707 4.875 19.0013 4.875ZM19.0013 11.2083C17.1116 11.2083 15.2994 11.959 13.9632 13.2952C12.627 14.6314 11.8763 16.4437 11.8763 18.3333V19.9167C11.8763 20.5466 11.6261 21.1506 11.1807 21.596C10.7353 22.0414 10.1312 22.2917 9.5013 22.2917C8.87141 22.2917 8.26732 22.0414 7.82192 21.596C7.37652 21.1506 7.1263 20.5466 7.1263 19.9167V18.3333C7.1263 15.1839 8.37741 12.1634 10.6044 9.93644C12.8314 7.70945 15.8519 6.45833 19.0013 6.45833C22.1507 6.45833 25.1712 7.70945 27.3982 9.93644C29.6252 12.1634 30.8763 15.1839 30.8763 18.3333V19.9167C30.8763 20.5466 30.6261 21.1506 30.1807 21.596C29.7353 22.0414 29.1312 22.2917 28.5013 22.2917C27.8714 22.2917 27.2673 22.0414 26.8219 21.596C26.3765 21.1506 26.1263 20.5466 26.1263 19.9167V18.3333C26.1263 16.4437 25.3756 14.6314 24.0394 13.2952C22.7032 11.959 20.891 11.2083 19.0013 11.2083ZM18.2096 18.3333C18.2096 18.1234 18.293 17.922 18.4415 17.7735C18.59 17.6251 18.7913 17.5417 19.0013 17.5417C19.2113 17.5417 19.4126 17.6251 19.5611 17.7735C19.7096 17.922 19.793 18.1234 19.793 18.3333V19.9167C19.793 20.5466 20.0432 21.1506 20.4886 21.596C20.934 22.0414 21.5381 22.2917 22.168 22.2917C22.7979 22.2917 23.4019 22.0414 23.8473 21.596C24.2927 21.1506 24.543 20.5466 24.543 19.9167V18.3333C24.543 17.6056 24.3996 16.885 24.1211 16.2126C23.8426 15.5403 23.4344 14.9294 22.9199 14.4148C22.4053 13.9002 21.7943 13.492 21.122 13.2135C20.4497 12.935 19.729 12.7917 19.0013 12.7917C18.2736 12.7917 17.5529 12.935 16.8806 13.2135C16.2083 13.492 15.5973 13.9002 15.0828 14.4148C14.5682 14.9294 14.16 15.5403 13.8815 16.2126C13.603 16.885 13.4596 17.6056 13.4596 18.3333V19.9167C13.4596 20.5466 13.7099 21.1506 14.1553 21.596C14.6007 22.0414 15.2047 22.2917 15.8346 22.2917C16.4645 22.2917 17.0686 22.0414 17.514 21.596C17.9594 21.1506 18.2096 20.5466 18.2096 19.9167V18.3333Z" fill="url(#paint0_linear_214_56)"/>
    <defs>
        <linearGradient id="paint0_linear_214_56" x1="19.0013" y1="0.125" x2="19.0013" y2="22.2917" gradientUnits="userSpaceOnUse">
            <stop stop-color="#823679"/>
            <stop offset="1" stop-color="#E6C5E8"/>
        </linearGradient>
    </defs>
</svg>
