<svg width="1440" height="941" viewBox="0 0 1440 941" fill="none" xmlns="http://www.w3.org/2000/svg">
    <line x1="-533.839" y1="746.549" x2="587.635" y2="-702.173" stroke="#925CB3" stroke-width="5"/>
    <line x1="-506.162" y1="767.974" x2="615.312" y2="-680.748" stroke="#925CB3" stroke-width="5"/>
    <line x1="-487.475" y1="801.01" x2="633.999" y2="-647.712" stroke="#925CB3" stroke-width="5"/>
    <line x1="-452.193" y1="812.609" x2="669.281" y2="-636.113" stroke="#925CB3" stroke-width="5"/>
    <line x1="-424.517" y1="834.034" x2="696.957" y2="-614.688" stroke="#925CB3" stroke-width="5"/>
    <line x1="-405.828" y1="867.07" x2="715.646" y2="-581.652" stroke="#925CB3" stroke-width="5"/>
    <line x1="-363.632" y1="869.738" x2="757.842" y2="-578.984" stroke="#925CB3" stroke-width="5"/>
    <line x1="-335.956" y1="891.163" x2="785.518" y2="-557.56" stroke="#925CB3" stroke-width="5"/>
    <line x1="-317.268" y1="924.199" x2="804.206" y2="-524.524" stroke="#925CB3" stroke-width="5"/>
    <line x1="-281.987" y1="935.799" x2="839.487" y2="-512.924" stroke="#925CB3" stroke-width="5"/>
    <line x1="-254.31" y1="957.223" x2="867.164" y2="-491.499" stroke="#925CB3" stroke-width="5"/>
    <line x1="-235.621" y1="990.259" x2="885.853" y2="-458.464" stroke="#925CB3" stroke-width="5"/>
    <line x1="-201.722" y1="1003.65" x2="919.752" y2="-445.077" stroke="#925CB3" stroke-width="5"/>
    <line x1="-174.046" y1="1025.07" x2="947.428" y2="-423.653" stroke="#925CB3" stroke-width="5"/>
    <line x1="-155.358" y1="1058.11" x2="966.116" y2="-390.617" stroke="#925CB3" stroke-width="5"/>
    <line x1="-120.076" y1="1069.71" x2="1001.4" y2="-379.017" stroke="#925CB3" stroke-width="5"/>
    <line x1="-92.3997" y1="1091.13" x2="1029.07" y2="-357.593" stroke="#925CB3" stroke-width="5"/>
    <line x1="-73.7113" y1="1124.17" x2="1047.76" y2="-324.557" stroke="#925CB3" stroke-width="5"/>
    <line x1="-31.515" y1="1126.83" x2="1089.96" y2="-321.889" stroke="#925CB3" stroke-width="5"/>
    <line x1="-3.83919" y1="1148.26" x2="1117.63" y2="-300.464" stroke="#925CB3" stroke-width="5"/>
    <line x1="14.8483" y1="1181.29" x2="1136.32" y2="-267.428" stroke="#925CB3" stroke-width="5"/>
    <line x1="50.1305" y1="1192.89" x2="1171.6" y2="-255.828" stroke="#925CB3" stroke-width="5"/>
    <line x1="77.8073" y1="1214.32" x2="1199.28" y2="-234.403" stroke="#925CB3" stroke-width="5"/>
    <line x1="96.4958" y1="1247.36" x2="1217.97" y2="-201.367" stroke="#925CB3" stroke-width="5"/>
    <line x1="127.629" y1="1264.31" x2="1249.1" y2="-184.409" stroke="#925CB3" stroke-width="5"/>
    <line x1="155.305" y1="1285.74" x2="1276.78" y2="-162.984" stroke="#925CB3" stroke-width="5"/>
    <line x1="173.993" y1="1318.77" x2="1295.47" y2="-129.948" stroke="#925CB3" stroke-width="5"/>
    <line x1="209.275" y1="1330.37" x2="1330.75" y2="-118.349" stroke="#925CB3" stroke-width="5"/>
    <line x1="236.951" y1="1351.8" x2="1358.42" y2="-96.9238" stroke="#925CB3" stroke-width="5"/>
    <line x1="255.639" y1="1384.83" x2="1377.11" y2="-63.8886" stroke="#925CB3" stroke-width="5"/>
    <line x1="297.836" y1="1387.5" x2="1419.31" y2="-61.2197" stroke="#925CB3" stroke-width="5"/>
    <line x1="325.512" y1="1408.93" x2="1446.99" y2="-39.7949" stroke="#925CB3" stroke-width="5"/>
    <line x1="344.2" y1="1441.96" x2="1465.67" y2="-6.75873" stroke="#925CB3" stroke-width="5"/>
    <line x1="379.483" y1="1453.56" x2="1500.96" y2="4.83991" stroke="#925CB3" stroke-width="5"/>
    <line x1="407.158" y1="1474.99" x2="1528.63" y2="26.2647" stroke="#925CB3" stroke-width="5"/>
    <line x1="425.846" y1="1508.02" x2="1547.32" y2="59.3008" stroke="#925CB3" stroke-width="5"/>
    <line x1="459.746" y1="1521.41" x2="1581.22" y2="72.6866" stroke="#925CB3" stroke-width="5"/>
    <line x1="487.423" y1="1542.83" x2="1608.9" y2="94.1114" stroke="#925CB3" stroke-width="5"/>
    <line x1="506.11" y1="1575.87" x2="1627.58" y2="127.148" stroke="#925CB3" stroke-width="5"/>
    <line x1="541.392" y1="1587.47" x2="1662.87" y2="138.747" stroke="#925CB3" stroke-width="5"/>
    <line x1="569.068" y1="1608.89" x2="1690.54" y2="160.172" stroke="#925CB3" stroke-width="5"/>
    <line x1="587.757" y1="1641.93" x2="1709.23" y2="193.208" stroke="#925CB3" stroke-width="5"/>
    <line x1="629.953" y1="1644.6" x2="1751.43" y2="195.876" stroke="#925CB3" stroke-width="5"/>
    <line x1="657.63" y1="1666.02" x2="1779.1" y2="217.301" stroke="#925CB3" stroke-width="5"/>
    <line x1="676.318" y1="1699.06" x2="1797.79" y2="250.336" stroke="#925CB3" stroke-width="5"/>
    <line x1="711.599" y1="1710.66" x2="1833.07" y2="261.937" stroke="#925CB3" stroke-width="5"/>
    <line x1="739.275" y1="1732.08" x2="1860.75" y2="283.361" stroke="#925CB3" stroke-width="5"/>
    <line x1="757.964" y1="1765.12" x2="1879.44" y2="316.397" stroke="#925CB3" stroke-width="5"/>
</svg>
