<svg width="8" height="8" viewBox="0 0 8 8" fill="none" xmlns="http://www.w3.org/2000/svg">
<path d="M0.219754 0.220243C0.289319 0.150579 0.371936 0.0953123 0.462878 0.0576048C0.553821 0.0198973 0.651305 0.000488281 0.749754 0.000488281C0.848204 0.000488281 0.945688 0.0198973 1.03663 0.0576048C1.12757 0.0953123 1.21019 0.150579 1.27975 0.220243L3.99975 2.93924L6.71975 0.220243C6.78936 0.150642 6.87198 0.0954319 6.96292 0.0577643C7.05386 0.0200967 7.15132 0.000709536 7.24975 0.000709534C7.34818 0.000709532 7.44565 0.0200967 7.53659 0.0577643C7.62753 0.0954319 7.71015 0.150642 7.77975 0.220243C7.84935 0.289843 7.90457 0.372471 7.94223 0.463409C7.9799 0.554346 7.99929 0.651813 7.99929 0.750243C7.99929 0.848673 7.9799 0.946139 7.94223 1.03708C7.90457 1.12801 7.84935 1.21064 7.77975 1.28024L5.06075 4.00024L7.77975 6.72024C7.92032 6.86081 7.99929 7.05145 7.99929 7.25024C7.99929 7.44903 7.92032 7.63968 7.77975 7.78024C7.63919 7.92081 7.44854 7.99978 7.24975 7.99978C7.05097 7.99978 6.86032 7.92081 6.71975 7.78024L3.99975 5.06124L1.27975 7.78024C1.13919 7.92081 0.948543 7.99978 0.749754 7.99978C0.550966 7.99978 0.360319 7.92081 0.219754 7.78024C0.0791897 7.63968 0.000221252 7.44903 0.000221252 7.25024C0.000221252 7.05145 0.0791897 6.86081 0.219754 6.72024L2.93875 4.00024L0.219754 1.28024C0.15009 1.21068 0.094824 1.12806 0.0571165 1.03712C0.019409 0.946177 0 0.848693 0 0.750243C0 0.651793 0.019409 0.554309 0.0571165 0.463367C0.094824 0.372424 0.15009 0.289808 0.219754 0.220243Z" fill="#ECCEFF"/>
</svg>
