<svg width="30" height="29" viewBox="0 0 30 29" fill="none" xmlns="http://www.w3.org/2000/svg">
    <path d="M10.8564 1.11901C11.104 1.27025 11.2813 1.51361 11.3494 1.79558C11.4175 2.07755 11.3708 2.37502 11.2196 2.62256C11.1081 2.80427 11.0612 3.01825 11.0863 3.22994C11.1114 3.44163 11.2072 3.63866 11.3581 3.78922L11.501 3.93068C12.3585 4.78964 12.675 6.0511 12.325 7.21193C12.2382 7.48604 12.0471 7.71498 11.7928 7.84921C11.5386 7.98344 11.2417 8.01216 10.9664 7.92916C10.6912 7.84616 10.4596 7.65811 10.322 7.4057C10.1843 7.1533 10.1516 6.85684 10.2308 6.58047C10.2888 6.38884 10.2936 6.18505 10.2448 5.99088C10.196 5.7967 10.0954 5.61942 9.95373 5.47797L9.81227 5.33506C9.31459 4.83742 8.99881 4.18681 8.91575 3.48794C8.83269 2.78906 8.98718 2.08256 9.35435 1.48214C9.42912 1.35945 9.52732 1.2527 9.64335 1.16798C9.75938 1.08325 9.89097 1.02222 10.0306 0.988363C10.1702 0.954507 10.3151 0.94849 10.4571 0.970657C10.599 0.992825 10.7352 1.04274 10.8579 1.11756L10.8564 1.11901ZM21.7998 4.88443C22.084 4.94176 22.3338 5.10961 22.4944 5.35108C22.6549 5.59254 22.713 5.88787 22.6558 6.17214L22.4458 7.22214C22.1571 8.66589 21.1158 9.84714 19.7187 10.3123C19.0654 10.5311 18.5783 11.0809 18.4441 11.7561L18.2341 12.8061C18.1773 13.0906 18.0098 13.3408 17.7684 13.5018C17.527 13.6627 17.2316 13.7212 16.9472 13.6643C16.6627 13.6075 16.4125 13.4399 16.2515 13.1986C16.0906 12.9572 16.0321 12.6618 16.0889 12.3773L16.2989 11.3273C16.5877 9.88214 17.6289 8.70235 19.026 8.23568C19.6793 8.01985 20.1664 7.4686 20.3021 6.79193L20.5106 5.74193C20.5388 5.60106 20.5945 5.46713 20.6745 5.34779C20.7545 5.22845 20.8572 5.12605 20.9768 5.04641C21.0964 4.96678 21.2305 4.91149 21.3714 4.8837C21.5124 4.85591 21.6574 4.85615 21.7983 4.88443H21.7998ZM27.2233 17.7746C26.9649 17.6616 26.6796 17.6249 26.401 17.6688C26.1224 17.7127 25.8623 17.8355 25.6512 18.0226C25.0755 18.5327 24.3539 18.8488 23.5886 18.926C22.8233 19.0032 22.0531 18.8376 21.3871 18.4528L21.0764 18.2748C20.825 18.1298 20.6415 17.8908 20.5663 17.6105C20.4911 17.3302 20.5304 17.0315 20.6754 16.7801C20.8204 16.5287 21.0594 16.3452 21.3397 16.27C21.6201 16.1947 21.9188 16.234 22.1702 16.379L22.4808 16.5584C23.0321 16.8763 23.7233 16.8063 24.2002 16.3848C24.7235 15.9211 25.3686 15.6167 26.0593 15.5076C26.75 15.3986 27.4575 15.4894 28.0983 15.7694L28.5241 15.9546C28.79 16.0709 28.9989 16.288 29.1047 16.5582C29.2106 16.8284 29.2047 17.1296 29.0885 17.3955C28.9723 17.6614 28.7552 17.8702 28.485 17.9761C28.2148 18.0819 27.9136 18.0761 27.6477 17.9598L27.2233 17.7732V17.7746ZM6.10518 3.74547C6.17796 3.67289 6.26432 3.61535 6.35933 3.57614C6.45434 3.53694 6.55614 3.51682 6.65892 3.51696C6.76171 3.5171 6.86346 3.53747 6.95836 3.57693C7.05327 3.61639 7.13948 3.67416 7.21206 3.74693C7.28464 3.8197 7.34218 3.90606 7.38139 4.00107C7.4206 4.09608 7.44071 4.19789 7.44057 4.30067C7.44044 4.40345 7.42006 4.5052 7.3806 4.60011C7.34114 4.69502 7.28337 4.78122 7.2106 4.85381C7.06363 5.00039 6.86444 5.08259 6.65686 5.08232C6.44928 5.08204 6.25031 4.99932 6.10373 4.85235C5.95714 4.70537 5.87494 4.50619 5.87521 4.29861C5.87549 4.09103 5.95821 3.89206 6.10518 3.74547ZM14.8377 8.43693C14.765 8.36425 14.6787 8.3066 14.5838 8.26727C14.4888 8.22793 14.387 8.20769 14.2842 8.20769C14.1815 8.20769 14.0797 8.22793 13.9847 8.26727C13.8898 8.3066 13.8035 8.36425 13.7308 8.43693C13.6581 8.50961 13.6005 8.59589 13.5611 8.69085C13.5218 8.78581 13.5016 8.88759 13.5016 8.99037C13.5016 9.09315 13.5218 9.19493 13.5611 9.28989C13.6005 9.38484 13.6581 9.47113 13.7308 9.54381C13.8036 9.61648 13.89 9.67412 13.985 9.71341C14.0801 9.75271 14.1819 9.7729 14.2848 9.77283C14.3876 9.77277 14.4894 9.75244 14.5844 9.71302C14.6794 9.6736 14.7657 9.61585 14.8384 9.54308C14.9111 9.4703 14.9687 9.38393 15.008 9.28888C15.0473 9.19383 15.0675 9.09197 15.0674 8.98912C15.0674 8.88627 15.047 8.78444 15.0076 8.68945C14.9682 8.59445 14.9105 8.50961 14.8377 8.43693ZM21.0225 12.8119C21.0951 12.7393 21.1812 12.6816 21.2761 12.6422C21.371 12.6028 21.4727 12.5825 21.5754 12.5825C21.6781 12.5824 21.7798 12.6026 21.8748 12.6418C21.9697 12.6811 22.0559 12.7386 22.1286 12.8112C22.2013 12.8838 22.259 12.97 22.2983 13.0648C22.3377 13.1597 22.358 13.2614 22.3581 13.3641C22.3581 13.4668 22.338 13.5686 22.2987 13.6635C22.2595 13.7584 22.2019 13.8447 22.1294 13.9173C21.9828 14.0641 21.7839 14.1467 21.5764 14.1468C21.369 14.1469 21.17 14.0647 21.0232 13.9181C20.8764 13.7715 20.7939 13.5726 20.7938 13.3652C20.7936 13.1577 20.8759 12.9587 21.0225 12.8119ZM24.9016 20.3311C24.7549 20.1843 24.5558 20.1019 24.3482 20.1019C24.1406 20.1019 23.9415 20.1843 23.7948 20.3311C23.648 20.4779 23.5655 20.677 23.5655 20.8845C23.5655 21.0921 23.648 21.2912 23.7948 21.438C23.8674 21.5107 23.9537 21.5683 24.0487 21.6076C24.1436 21.647 24.2454 21.6672 24.3482 21.6672C24.451 21.6672 24.5528 21.647 24.6477 21.6076C24.7427 21.5683 24.829 21.5107 24.9016 21.438C24.9743 21.3653 25.032 21.279 25.0713 21.1841C25.1106 21.0891 25.1309 20.9873 25.1309 20.8845C25.1309 20.7818 25.1106 20.68 25.0713 20.585C25.032 20.4901 24.9743 20.4038 24.9016 20.3311ZM6.89852 27.5178C3.59977 28.6057 1.86143 29.0607 0.900393 28.0996C-0.164191 27.0351 0.508101 25.0182 1.85268 20.9859L4.31727 13.5936C5.23893 10.8286 5.77998 9.20401 6.68268 8.54485L6.67539 8.58276C6.60326 8.93665 6.53617 9.29155 6.47414 9.64735C6.30537 10.5869 6.15465 11.5297 6.02206 12.4751C5.70706 14.7107 5.41685 17.5676 5.56706 19.8498C5.65748 21.2309 5.94477 22.9444 6.20143 24.2832C6.342 25.0161 6.49368 25.7468 6.65643 26.4751L6.6856 26.6107L6.89852 27.5178ZM15.0171 24.8126L15.4064 24.6828C18.7577 23.5657 20.4333 23.0071 20.7439 21.6859C21.0575 20.3646 19.8077 19.1148 17.3096 16.6167L14.8464 14.1536L14.8391 14.1755L14.7196 14.5648C14.6204 14.9003 14.4862 15.3669 14.3535 15.9007C14.0808 16.993 13.8329 18.2661 13.8329 19.2257C13.8329 20.1853 14.0808 21.4584 14.3535 22.5507C14.5076 23.165 14.6807 23.7744 14.8727 24.378L14.88 24.4028L14.8829 24.4086L15.0171 24.8126ZM8.83518 8.94297L8.9081 8.58568C9.80206 9.11068 10.8608 10.168 12.3819 11.6905L13.1154 12.4226L12.8062 13.3559L12.7916 13.3967C12.5838 14.0489 12.3966 14.7074 12.2302 15.3713C11.9502 16.4928 11.6454 17.9832 11.6454 19.2257C11.6454 20.4682 11.9516 21.9586 12.2302 23.0801C12.3965 23.744 12.5838 24.4025 12.7916 25.0546L12.9419 25.5053L8.98248 26.8251L8.82643 26.1542L8.81914 26.1221L8.78998 25.9953L8.68352 25.514C8.59602 25.1028 8.47497 24.5282 8.3481 23.8719C8.09581 22.5492 7.83039 20.9465 7.75018 19.7069C7.61456 17.6594 7.87706 14.9878 8.18768 12.7798C8.36551 11.5194 8.57656 10.2638 8.8206 9.01443L8.83081 8.96047L8.83372 8.94589V8.94297H8.83518ZM17.8098 1.22256C18.03 1.19339 18.4339 1.17881 18.7533 1.49964C19.0741 1.82047 19.0596 2.22297 19.0304 2.44464C18.9909 2.681 18.9354 2.91439 18.8641 3.14318L18.8116 3.32693L18.9064 3.47568C19.0333 3.67839 19.1704 3.89568 19.255 4.08818C19.3498 4.30693 19.4577 4.67443 19.255 5.05943C19.0552 5.4386 18.6979 5.56401 18.4718 5.61506C18.2648 5.66172 18.0066 5.68214 17.7616 5.70256L17.5764 5.71714H17.5604L17.4262 5.88047C17.2658 6.07443 17.101 6.27568 16.945 6.42006C16.7787 6.57026 16.4666 6.8036 16.0335 6.74526C15.5858 6.68401 15.3525 6.35881 15.2402 6.1561C15.1335 5.94604 15.0419 5.72869 14.966 5.50568L14.9077 5.34526L14.7473 5.28693C14.5247 5.21177 14.3078 5.12063 14.0983 5.01422C13.8941 4.90047 13.5704 4.6686 13.5091 4.22089C13.4508 3.78631 13.6841 3.47568 13.8343 3.30943C13.9773 3.15339 14.18 2.9886 14.3739 2.82818L14.5373 2.69401V2.67943L14.5519 2.49276C14.5708 2.24631 14.5912 1.98818 14.6393 1.78256C14.6904 1.55506 14.8144 1.19922 15.1935 0.99943C15.58 0.795264 15.9475 0.904639 16.1648 0.99943C16.3587 1.08256 16.576 1.21964 16.7773 1.34797L16.9275 1.44131L17.1112 1.39026C17.3504 1.32172 17.5998 1.25026 17.8098 1.22256ZM28.2893 13.3005C28.9704 12.6194 29.2227 11.7021 28.8493 10.8942C28.565 10.2817 27.9933 9.8836 27.2889 9.73339C27.1402 9.02901 26.7406 8.45735 26.1281 8.17297C25.3202 7.8011 24.4029 8.05193 23.7218 8.73443C23.3281 9.12818 23.1487 9.65756 23.0656 10.1301C22.9781 10.6113 22.9781 11.1217 23.0058 11.568C23.0423 12.1154 23.1218 12.6591 23.2435 13.194C23.3091 13.4565 23.5235 13.7044 23.786 13.7686H23.7889L23.8283 13.7788C23.9812 13.8158 24.1354 13.8474 24.2906 13.8736C24.5896 13.9261 25.0037 13.9888 25.4543 14.0165C25.9006 14.0457 26.411 14.0442 26.8923 13.9582C27.3648 13.8751 27.8941 13.6957 28.2893 13.3019V13.3005Z" fill="url(#paint0_linear_214_60)"/>
    <defs>
        <linearGradient id="paint0_linear_214_60" x1="14.7776" y1="0.883789" x2="14.7776" y2="28.6248" gradientUnits="userSpaceOnUse">
            <stop stop-color="#823679"/>
            <stop offset="1" stop-color="#E6C5E8"/>
        </linearGradient>
    </defs>
</svg>
