<svg width="29" height="27" viewBox="0 0 29 27" fill="none" xmlns="http://www.w3.org/2000/svg">
    <path d="M22.2487 26.6249C23.3424 26.6249 24.424 26.3575 25.4935 25.8228C26.5629 25.2881 27.4258 24.5832 28.082 23.7082C27.4501 23.7082 26.806 23.4588 26.1497 22.9601C25.4935 22.4613 25.1654 21.7385 25.1654 20.7916C25.1654 19.5763 24.74 18.5433 23.8893 17.6926C23.0386 16.8419 22.0056 16.4166 20.7904 16.4166C19.5751 16.4166 18.5421 16.8419 17.6914 17.6926C16.8407 18.5433 16.4154 19.5763 16.4154 20.7916C16.4154 22.3957 16.9865 23.769 18.1289 24.9113C19.2713 26.0537 20.6445 26.6249 22.2487 26.6249ZM13.8633 17.8749L17.8737 13.8645L4.82161 0.812386C4.55425 0.545025 4.21981 0.405025 3.81828 0.392386C3.41675 0.379748 3.07064 0.519747 2.77995 0.812386L0.811195 2.78114C0.519529 3.0728 0.373697 3.41308 0.373697 3.80197C0.373697 4.19086 0.519529 4.53114 0.811195 4.8228L13.8633 17.8749Z" fill="url(#paint0_linear_198_544)"/>
    <defs>
        <linearGradient id="paint0_linear_198_544" x1="14.2279" y1="0.391602" x2="14.2279" y2="26.6249" gradientUnits="userSpaceOnUse">
            <stop stop-color="#823679"/>
            <stop offset="1" stop-color="#E6C5E8"/>
        </linearGradient>
    </defs>
</svg>
