<svg width="27" height="27" viewBox="0 0 27 27" fill="none" xmlns="http://www.w3.org/2000/svg">
    <path fill-rule="evenodd" clip-rule="evenodd" d="M14.7948 5.29023L12.9356 7.14937C12.5719 7.50068 12.0847 7.69507 11.5791 7.69067C11.0734 7.68628 10.5897 7.48346 10.2321 7.12588C9.87455 6.76831 9.67172 6.2846 9.66733 5.77893C9.66293 5.27327 9.85732 4.78611 10.2086 4.42238L12.0678 2.5613C13.7084 0.920703 15.9335 -0.00097658 18.2537 -0.000976562C20.5738 -0.000976545 22.799 0.920703 24.4396 2.5613C26.0802 4.20191 27.0018 6.42704 27.0018 8.7472C27.0018 11.0674 26.0802 13.2925 24.4396 14.9331L22.5785 16.7922C22.4006 16.9764 22.1878 17.1234 21.9525 17.2244C21.7172 17.3255 21.4641 17.3787 21.208 17.3809C20.952 17.3832 20.698 17.3344 20.461 17.2374C20.224 17.1404 20.0087 16.9972 19.8276 16.8161C19.6465 16.6351 19.5033 16.4197 19.4063 16.1827C19.3094 15.9457 19.2606 15.6917 19.2628 15.4357C19.265 15.1796 19.3182 14.9265 19.4193 14.6912C19.5204 14.4559 19.6673 14.2431 19.8515 14.0652L21.7106 12.2042C22.5849 11.2788 23.0639 10.0489 23.0458 8.77595C23.0278 7.50298 22.5141 6.28723 21.6138 5.38702C20.7136 4.48681 19.4979 3.97309 18.2249 3.95501C16.9519 3.93694 15.7202 4.41594 14.7948 5.29023ZM7.14991 10.2081C7.51146 10.5697 7.71457 11.0602 7.71457 11.5716C7.71457 12.083 7.51146 12.5734 7.14991 12.9351L5.29077 14.7962C4.41648 15.7216 3.93748 16.9514 3.95555 18.2244C3.97362 19.4973 4.48734 20.7131 5.38756 21.6133C6.28777 22.5135 7.50352 23.0272 8.77648 23.0453C10.0494 23.0634 11.2793 22.5844 12.2047 21.7101L14.0658 19.8509C14.4295 19.4996 14.9167 19.3053 15.4223 19.3096C15.928 19.314 16.4117 19.5169 16.7693 19.8744C17.1268 20.232 17.3297 20.7157 17.3341 21.2214C17.3385 21.7271 17.1441 22.2142 16.7928 22.5779L14.9336 24.4371C13.2873 26.0486 11.0717 26.9456 8.76794 26.9334C6.46419 26.9211 4.25826 26.0006 2.62912 24.3717C0.999973 22.7428 0.0791336 20.5371 0.0665372 18.2333C0.0539408 15.9296 0.950604 13.7138 2.56184 12.0672L4.42291 10.2081C4.78457 9.84654 5.27502 9.64343 5.78641 9.64343C6.2978 9.64343 6.78825 9.84654 7.14991 10.2081ZM17.7571 11.9708C18.1084 11.6071 18.3027 11.1199 18.2984 10.6142C18.294 10.1086 18.0911 9.62487 17.7336 9.2673C17.376 8.90972 16.8923 8.7069 16.3866 8.7025C15.8809 8.69811 15.3938 8.8925 15.0301 9.2438L9.24434 15.0295C8.89304 15.3933 8.69864 15.8804 8.70304 16.3861C8.70743 16.8917 8.91026 17.3755 9.26783 17.733C9.62541 18.0906 10.1091 18.2934 10.6148 18.2978C11.1204 18.3022 11.6076 18.1078 11.9713 17.7565L17.7571 11.9708Z" fill="url(#paint0_linear_214_68)"/>
    <defs>
        <linearGradient id="paint0_linear_214_68" x1="-2.39048e-07" y1="2.37486e-07" x2="27" y2="27" gradientUnits="userSpaceOnUse">
            <stop stop-color="#823679"/>
            <stop offset="1" stop-color="#E6C5E8" stop-opacity="0"/>
        </linearGradient>
    </defs>
</svg>
