<svg width="31" height="31" viewBox="0 0 31 31" fill="none" xmlns="http://www.w3.org/2000/svg">
    <path d="M24.7302 6.84019C23.0234 6.04453 21.1754 5.46703 19.2504 5.13336C19.2335 5.13282 19.2167 5.13599 19.2012 5.14264C19.1857 5.14929 19.1718 5.15927 19.1605 5.17186C18.9295 5.59536 18.66 6.14719 18.4804 6.57069C16.4386 6.26269 14.3622 6.26269 12.3204 6.57069C12.1407 6.13436 11.8712 5.59536 11.6274 5.17186C11.6145 5.14619 11.576 5.13336 11.5375 5.13336C9.61254 5.46703 7.77738 6.04453 6.05771 6.84019C6.04488 6.84019 6.03204 6.85303 6.01921 6.86586C2.52855 12.089 1.56605 17.171 2.04088 22.2017C2.04088 22.2274 2.05371 22.253 2.07938 22.2659C4.38938 23.9599 6.60954 24.9865 8.80404 25.6667C8.84254 25.6795 8.88104 25.6667 8.89388 25.641C9.40721 24.9352 9.86921 24.1909 10.267 23.408C10.2927 23.3567 10.267 23.3054 10.2157 23.2925C9.48421 23.0102 8.79121 22.6765 8.11104 22.2915C8.05971 22.2659 8.05971 22.1889 8.09821 22.1504C8.23938 22.0477 8.38054 21.9322 8.52171 21.8295C8.54738 21.8039 8.58588 21.8039 8.61154 21.8167C13.0262 23.8315 17.7874 23.8315 22.1507 21.8167C22.1764 21.8039 22.2149 21.8039 22.2405 21.8295C22.3817 21.945 22.5229 22.0477 22.664 22.1632C22.7154 22.2017 22.7154 22.2787 22.6512 22.3044C21.9839 22.7022 21.278 23.023 20.5465 23.3054C20.4952 23.3182 20.4824 23.3824 20.4952 23.4209C20.9059 24.2037 21.3679 24.948 21.8684 25.6539C21.9069 25.6667 21.9454 25.6795 21.9839 25.6667C24.1912 24.9865 26.4114 23.9599 28.7214 22.2659C28.747 22.253 28.7599 22.2274 28.7599 22.2017C29.3245 16.3882 27.823 11.3447 24.7815 6.86586C24.7687 6.85303 24.7559 6.84019 24.7302 6.84019ZM10.9344 19.1345C9.61255 19.1345 8.50888 17.9154 8.50888 16.4139C8.50888 14.9124 9.58688 13.6932 10.9344 13.6932C12.2947 13.6932 13.3727 14.9252 13.3599 16.4139C13.3599 17.9154 12.2819 19.1345 10.9344 19.1345ZM19.8792 19.1345C18.5574 19.1345 17.4537 17.9154 17.4537 16.4139C17.4537 14.9124 18.5317 13.6932 19.8792 13.6932C21.2395 13.6932 22.3175 14.9252 22.3047 16.4139C22.3047 17.9154 21.2395 19.1345 19.8792 19.1345Z" fill="#ECCEFF"/>
</svg>
