<svg width="59" height="134" viewBox="0 0 59 134" fill="none" xmlns="http://www.w3.org/2000/svg">
    <path d="M29.7157 133.178L37.2305 112.601L37.2309 92.0423L45.8395 93.0217L37.2312 75.2866L37.2311 53.8441L45.8396 54.8229L37.7193 38.0939L31.9592 38.0944L31.9595 111.55L28.1632 111.551L28.1626 38.0939L22.2004 38.0941L22.2007 59.8582L14.3946 75.9394L22.2009 75.0515L22.2011 98.0562L14.395 114.138L22.4289 113.224L29.7157 133.178ZM58.5672 31.9156L52.8581 26.206L49.4887 29.6714L9.92321 29.6711L6.55449 26.2059L0.844582 31.9158L6.56368 37.5544L9.82023 34.2979L49.591 34.2978L52.8478 37.5546L58.5672 31.9156ZM32.0063 25.8751L32.0062 0.548189L26.9105 0.547906L26.9105 25.8752L32.0063 25.8751Z" fill="url(#paint0_linear_215_88)"/>
    <defs>
        <linearGradient id="paint0_linear_215_88" x1="63.4456" y1="99.4479" x2="-4.27199" y2="31.7304" gradientUnits="userSpaceOnUse">
            <stop stop-color="#823679"/>
            <stop offset="1" stop-color="#E6C5E8"/>
        </linearGradient>
    </defs>
</svg>
